# xmcd CD database file
#
# Track frame offsets:
#	187
#	44349
#	93344
#	143342
#	206389
#	245454
#
# Disc length: 3958 seconds
#
# Revision: 4
# Processed by: cddbd v1.4PL0 Copyright (c) Steve Scherf et al.
# Submitted via: CDex 1.50Beta7
#
DISCID=450f7406
DTITLE=Rachmaninoff - Rachmaninoff plays Rachmaninoff
DYEAR=1900
DGENRE=Classical
TTITLE0=Concerto No. 2 in C Minor, Op.18-1 - Moderato - Allegro
TTITLE1=Concerto No. 2 in C Minor, Op.18-2 - Adagio sostenuto
TTITLE2=Concerto No. 2 in C Minor, Op.18-3 - Allegro scherzando
TTITLE3=Concerto No. 3 in D Minor, Op.30-1 - Allegro ma non tanto
TTITLE4=Concerto No. 3 in C Minor, Op.30-2 - Intermezzo: Adagio
TTITLE5=Concerto No. 3 in C Minor, Op.30-3 - Finale: Alla breve
EXTD=
EXTT0=
EXTT1=
EXTT2=
EXTT3=
EXTT4=
EXTT5=
PLAYORDER=
